<svg aria-hidden="true" style="position: absolute; width: 0; height: 0; overflow: hidden;" version="1.1" xmlns="http://www.w3.org/2000/svg" xmlns:xlink="http://www.w3.org/1999/xlink">
<defs>
<symbol id="icon-checkbox" viewBox="0 0 32 32">
<path fill="#fff" style="fill: var(--color1, #fff)" d="M6.4 0.8h19.2c3.093 0 5.6 2.507 5.6 5.6v19.2c0 3.093-2.507 5.6-5.6 5.6h-19.2c-3.093 0-5.6-2.507-5.6-5.6v-19.2c0-3.093 2.507-5.6 5.6-5.6z"></path>
<path fill="none" stroke="#424849" style="stroke: var(--color2, #424849)" stroke-linejoin="miter" stroke-linecap="butt" stroke-miterlimit="4" stroke-width="1.6" d="M6.4 0.8h19.2c3.093 0 5.6 2.507 5.6 5.6v19.2c0 3.093-2.507 5.6-5.6 5.6h-19.2c-3.093 0-5.6-2.507-5.6-5.6v-19.2c0-3.093 2.507-5.6 5.6-5.6z"></path>
</symbol>
<symbol id="icon-checkbox-2" viewBox="0 0 32 32">
<path fill="#146b87" style="fill: var(--color1, #146b87)" d="M6.4 0h19.2c3.535 0 6.4 2.865 6.4 6.4v19.2c0 3.535-2.865 6.4-6.4 6.4h-19.2c-3.535 0-6.4-2.865-6.4-6.4v-19.2c0-3.535 2.865-6.4 6.4-6.4z"></path>
<path fill="none" stroke="#fff" style="stroke: var(--color2, #fff)" stroke-linejoin="miter" stroke-linecap="round" stroke-miterlimit="4" stroke-width="1.6" d="M7 19.545l4.293 3.298c0.691 0.531 1.681 0.411 2.225-0.27l11.482-14.373"></path>
</symbol>
<symbol id="icon-info" viewBox="0 0 32 32">
<path fill="#697071" style="fill: var(--color3, #697071)" d="M15 25c0 0.552 0.448 1 1 1s1-0.448 1-1h-2zM17 13c0-0.552-0.448-1-1-1s-1 0.448-1 1h2zM30 16c0 7.732-6.268 14-14 14v2c8.837 0 16-7.163 16-16h-2zM16 30c-7.732 0-14-6.268-14-14h-2c0 8.837 7.163 16 16 16v-2zM2 16c0-7.732 6.268-14 14-14v-2c-8.837 0-16 7.163-16 16h2zM16 2c7.732 0 14 6.268 14 14h2c0-8.837-7.163-16-16-16v2zM16 7v2c1.105 0 2-0.895 2-2h-2zM16 7h-2c0 1.105 0.895 2 2 2v-2zM16 7v-2c-1.105 0-2 0.895-2 2h2zM16 7h2c0-1.105-0.895-2-2-2v2zM17 25v-12h-2v12h2z"></path>
</symbol>
<symbol id="icon-vector-right-sm" viewBox="0 0 18 32">
<path stroke-linejoin="round" stroke-linecap="round" stroke-miterlimit="4" stroke-width="0" d="M2 2l12.586 12.586c0.781 0.781 0.781 2.047 0 2.828l-12.586 12.586"></path>
</symbol>
<symbol id="icon-flag-button" viewBox="0 0 26 32">
<path fill="#fff" style="fill: var(--color1, #fff)" d="M1.961 0c0.013 0 0.026 0 0.039 0h19.344c0.944-0 1.76-0 2.368 0.086 0.59 0.084 1.412 0.304 1.764 1.135s-0.064 1.575-0.415 2.056c-0.362 0.496-0.931 1.081-1.589 1.758l-4.46 4.588c-0.66 0.679-1.084 1.118-1.355 1.483-0.254 0.342-0.283 0.502-0.283 0.608s0.029 0.266 0.283 0.608c0.271 0.365 0.696 0.804 1.355 1.483l4.46 4.587c0.658 0.676 1.227 1.262 1.589 1.758 0.351 0.481 0.767 1.224 0.415 2.056s-1.174 1.051-1.764 1.135c-0.608 0.086-1.424 0.086-2.368 0.086h-19.344v7.571c0 0.552-0.448 1-1 1s-1-0.448-1-1v-29c0-0.013 0-0.026-0-0.039-0-0.2-0-0.438 0.027-0.642 0.033-0.247 0.122-0.589 0.412-0.879s0.632-0.379 0.879-0.412c0.205-0.028 0.443-0.027 0.642-0.027z"></path>
</symbol>
<symbol id="icon-chek-button" viewBox="0 0 32 32">
<path fill="none" stroke="#fff" style="stroke: var(--color1, #fff)" stroke-linejoin="miter" stroke-linecap="round" stroke-miterlimit="4" stroke-width="2.2857" d="M3.143 22.208l6.134 4.712c0.988 0.759 2.401 0.587 3.178-0.386l16.402-20.534"></path>
</symbol>
<symbol id="icon-vector-button-right" viewBox="0 0 32 32">
<path stroke-linejoin="round" stroke-linecap="round" stroke-miterlimit="4" stroke-width="2.6667" d="M8.667 2l12.114 12.114c1.041 1.041 1.041 2.73 0 3.771l-12.114 12.114"></path>
</symbol>
<symbol id="icon-vector-down" viewBox="0 0 32 32">
<path fill="none" stroke="#424849" style="stroke: var(--color2, #424849)" stroke-linejoin="round" stroke-linecap="round" stroke-miterlimit="4" stroke-width="2.6667" d="M30 10l-12.114 12.114c-1.041 1.041-2.73 1.041-3.771 0l-12.114-12.114"></path>
</symbol>
<symbol id="icon-vector-left" viewBox="0 0 32 32">
<path stroke-linejoin="round" stroke-linecap="round" stroke-miterlimit="4" stroke-width="1" d="M23 2l-12.586 12.586c-0.781 0.781-0.781 2.047 0 2.828l12.586 12.586"></path>
</symbol>
<symbol id="icon-arrow_right_long" viewBox="0 0 32 32">
<path fill="none" stroke="#042a30" style="stroke: var(--color3, #042a30)" stroke-linejoin="round" stroke-linecap="round" stroke-miterlimit="4" stroke-width="2" d="M22 16h-21"></path>
<path d="M31.285 16.429l-6.862 4.117c-1.066 0.64-2.423-0.128-2.423-1.372v-6.348c0-1.244 1.357-2.012 2.423-1.372l6.862 4.117c0.324 0.194 0.324 0.663 0 0.857z"></path>
</symbol>
<symbol id="icon-chek-button1" viewBox="0 0 32 32">
<path fill="none" stroke="#fff" style="stroke: var(--color1, #fff)" stroke-linejoin="miter" stroke-linecap="round" stroke-miterlimit="4" stroke-width="2.2857" d="M3.143 22.208l6.134 4.712c0.988 0.759 2.401 0.587 3.178-0.386l16.402-20.534"></path>
</symbol>
<symbol id="icon-flag-button1" viewBox="0 0 32 32">
<path fill="#fff" style="fill: var(--color1, #fff)" d="M4.961 0c0.013 0 0.026 0 0.039 0h19.344c0.944-0 1.76-0 2.368 0.086 0.59 0.084 1.412 0.304 1.764 1.135s-0.064 1.575-0.415 2.056c-0.362 0.496-0.931 1.081-1.589 1.758l-4.46 4.588c-0.66 0.679-1.084 1.118-1.355 1.483-0.254 0.342-0.283 0.502-0.283 0.608s0.029 0.266 0.283 0.608c0.271 0.365 0.696 0.804 1.355 1.483l4.46 4.587c0.658 0.676 1.227 1.262 1.589 1.758 0.351 0.481 0.767 1.224 0.415 2.056s-1.174 1.051-1.764 1.135c-0.608 0.086-1.424 0.086-2.368 0.086h-19.344v7.571c0 0.552-0.448 1-1 1s-1-0.448-1-1v-29c0-0.013 0-0.026-0-0.039-0-0.2-0-0.438 0.027-0.642 0.033-0.247 0.122-0.589 0.412-0.879s0.632-0.379 0.879-0.412c0.205-0.028 0.443-0.027 0.643-0.027z"></path>
</symbol>
<symbol id="icon-vector-button-right1" viewBox="0 0 32 32">
<path stroke-linejoin="round" stroke-linecap="round" stroke-miterlimit="4" stroke-width="2.6667" d="M8.667 2l12.114 12.114c1.041 1.041 1.041 2.73 0 3.771l-12.114 12.114"></path>
</symbol>
<symbol id="icon-vector-down1" viewBox="0 0 32 32">
<path fill="none" stroke="#424849" style="stroke: var(--color2, #424849)" stroke-linejoin="round" stroke-linecap="round" stroke-miterlimit="4" stroke-width="2.6667" d="M30 10l-12.114 12.114c-1.041 1.041-2.73 1.041-3.771 0l-12.114-12.114"></path>
</symbol>
<symbol id="icon-vector-left1" viewBox="0 0 32 32">
<path stroke-linejoin="round" stroke-linecap="round" stroke-miterlimit="4" stroke-width="2" d="M23 2l-12.586 12.586c-0.781 0.781-0.781 2.047 0 2.828l12.586 12.586"></path>
</symbol>
<symbol id="icon-vector-right" viewBox="0 0 32 32">
<path stroke-linejoin="round" stroke-linecap="round" stroke-miterlimit="4" stroke-width="2" d="M9 2l12.586 12.586c0.781 0.781 0.781 2.047 0 2.828l-12.586 12.586"></path>
</symbol>
<symbol id="icon-Star" viewBox="0 0 32 32">
<path fill="#f1582b" style="fill: var(--color1, #f1582b)" d="M12.772 6.59c1.368-3.41 2.052-5.115 3.228-5.115s1.86 1.705 3.228 5.115l0.064 0.159c0.773 1.927 1.159 2.89 1.947 3.475s1.821 0.678 3.889 0.863l0.374 0.033c3.384 0.303 5.076 0.455 5.438 1.531s-0.894 2.22-3.407 4.506l-0.839 0.763c-1.272 1.157-1.908 1.736-2.205 2.494-0.055 0.141-0.101 0.286-0.138 0.434-0.195 0.791-0.009 1.63 0.364 3.309l0.116 0.523c0.685 3.086 1.027 4.628 0.429 5.294-0.223 0.249-0.514 0.428-0.836 0.516-0.863 0.235-2.088-0.763-4.538-2.759-1.609-1.311-2.413-1.967-3.337-2.114-0.363-0.058-0.733-0.058-1.097 0-0.924 0.147-1.728 0.803-3.337 2.114-2.45 1.997-3.675 2.995-4.538 2.759-0.322-0.088-0.613-0.267-0.836-0.516-0.598-0.665-0.255-2.208 0.429-5.294l0.116-0.523c0.373-1.679 0.559-2.518 0.364-3.309-0.036-0.148-0.082-0.293-0.138-0.434-0.296-0.758-0.933-1.337-2.205-2.494l-0.839-0.763c-2.513-2.286-3.769-3.429-3.407-4.506s2.054-1.228 5.438-1.531l0.374-0.033c2.068-0.185 3.101-0.278 3.889-0.863s1.174-1.549 1.947-3.475l0.064-0.159z"></path>
</symbol>


</defs>
</svg>
