<svg width="16" height="16" viewBox="0 0 16 16" fill="none" xmlns="http://www.w3.org/2000/svg">
<path d="M6.38599 3.2952C7.06995 1.5901 7.41193 0.737549 8 0.737549C8.58807 0.737549 8.93005 1.5901 9.61401 3.2952L9.64586 3.3746C10.0323 4.3379 10.2255 4.81955 10.6192 5.1123C11.013 5.40505 11.5299 5.45135 12.5636 5.54393L12.7505 5.56067C14.4424 5.71219 15.2884 5.78795 15.4694 6.32616C15.6504 6.86437 15.0222 7.43593 13.7657 8.57906L13.3463 8.96058C12.7103 9.53925 12.3923 9.82859 12.244 10.2078C12.2164 10.2785 12.1934 10.351 12.1752 10.4248C12.0778 10.8201 12.1709 11.2398 12.3572 12.0793L12.4151 12.3406C12.7574 13.8834 12.9286 14.6548 12.6298 14.9875C12.5181 15.1119 12.373 15.2014 12.2117 15.2454C11.7803 15.3631 11.1677 14.864 9.94266 13.8657C9.13821 13.2102 8.73599 12.8824 8.27419 12.8087C8.09255 12.7797 7.90745 12.7797 7.72581 12.8087C7.26401 12.8824 6.86179 13.2102 6.05734 13.8657C4.83225 14.864 4.2197 15.3631 3.78825 15.2454C3.62703 15.2014 3.4819 15.1119 3.37024 14.9875C3.07141 14.6548 3.24256 13.8834 3.58486 12.3406L3.64283 12.0793C3.82909 11.2398 3.92222 10.8201 3.82479 10.4248C3.80661 10.351 3.78362 10.2785 3.75597 10.2078C3.60775 9.82859 3.28972 9.53925 2.65367 8.96058L2.23432 8.57906C0.97785 7.43594 0.349612 6.86437 0.530625 6.32616C0.711637 5.78795 1.55759 5.71219 3.24948 5.56067L3.43637 5.54393C4.47014 5.45135 4.98703 5.40505 5.38078 5.1123C5.77454 4.81955 5.96774 4.3379 6.35414 3.3746L6.38599 3.2952Z" fill="#F1582B"/>
</svg>
